{
  "asset": {
    "version": "2.0",
    "generator": "box3d-demo asset generator"
  },
  "scene": 0,
  "scenes": [
    {
      "nodes": [
        0
      ]
    }
  ],
  "nodes": [
    {
      "mesh": 0,
      "name": "box3d_sphere"
    }
  ],
  "meshes": [
    {
      "name": "box3d_sphere",
      "primitives": [
        {
          "attributes": {
            "POSITION": 0,
            "NORMAL": 1
          },
          "indices": 2,
          "material": 0
        }
      ]
    }
  ],
  "materials": [
    {
      "name": "box3d_sphere_mat",
      "pbrMetallicRoughness": {
        "baseColorFactor": [
          0.3,
          0.7,
          0.35,
          1.0
        ],
        "metallicFactor": 0.0,
        "roughnessFactor": 0.8
      },
      "alphaMode": "OPAQUE"
    }
  ],
  "buffers": [
    {
      "byteLength": 9912,
      "uri": "data:application/octet-stream;base64,"
    }
  ],
  "bufferViews": [
    {
      "buffer": 0,
      "byteOffset": 0,
      "byteLength": 2652,
      "target": 34962
    },
    {
      "buffer": 0,
      "byteOffset": 2652,
      "byteLength": 2652,
      "target": 34962
    },
    {
      "buffer": 0,
      "byteOffset": 5304,
      "byteLength": 4608,
      "target": 34963
    }
  ],
  "accessors": [
    {
      "bufferView": 0,
      "componentType": 5126,
      "count": 221,
      "type": "VEC3",
      "min": [
        -1.0,
        -1.0,
        -1.0
      ],
      "max": [
        1.0,
        1.0,
        1.0
      ]
    },
    {
      "bufferView": 1,
      "componentType": 5126,
      "count": 221,
      "type": "VEC3"
    },
    {
      "bufferView": 2,
      "componentType": 5125,
      "count": 1152,
      "type": "SCALAR"
    }
  ]
}