{
  "asset": {
    "version": "2.0",
    "generator": "box3d-demo asset generator"
  },
  "scene": 0,
  "scenes": [
    {
      "nodes": [
        0
      ]
    }
  ],
  "nodes": [
    {
      "mesh": 0,
      "name": "box3d_hull"
    }
  ],
  "meshes": [
    {
      "name": "box3d_hull",
      "primitives": [
        {
          "attributes": {
            "POSITION": 0,
            "NORMAL": 1
          },
          "indices": 2,
          "material": 0
        }
      ]
    }
  ],
  "materials": [
    {
      "name": "box3d_hull_mat",
      "pbrMetallicRoughness": {
        "baseColorFactor": [
          0.85,
          0.75,
          0.2,
          1.0
        ],
        "metallicFactor": 0.0,
        "roughnessFactor": 0.8
      },
      "alphaMode": "OPAQUE"
    }
  ],
  "buffers": [
    {
      "byteLength": 528,
      "uri": "data:application/octet-stream;base64,"
    }
  ],
  "bufferViews": [
    {
      "buffer": 0,
      "byteOffset": 0,
      "byteLength": 144,
      "target": 34962
    },
    {
      "buffer": 0,
      "byteOffset": 144,
      "byteLength": 144,
      "target": 34962
    },
    {
      "buffer": 0,
      "byteOffset": 288,
      "byteLength": 240,
      "target": 34963
    }
  ],
  "accessors": [
    {
      "bufferView": 0,
      "componentType": 5126,
      "count": 12,
      "type": "VEC3",
      "min": [
        -0.85065080835204,
        -0.85065080835204,
        -0.85065080835204
      ],
      "max": [
        0.85065080835204,
        0.85065080835204,
        0.85065080835204
      ]
    },
    {
      "bufferView": 1,
      "componentType": 5126,
      "count": 12,
      "type": "VEC3"
    },
    {
      "bufferView": 2,
      "componentType": 5125,
      "count": 60,
      "type": "SCALAR"
    }
  ]
}