{
  "asset": {
    "version": "2.0",
    "generator": "box3d-demo asset generator"
  },
  "scene": 0,
  "scenes": [
    {
      "nodes": [
        0
      ]
    }
  ],
  "nodes": [
    {
      "mesh": 0,
      "name": "box3d_capsule"
    }
  ],
  "meshes": [
    {
      "name": "box3d_capsule",
      "primitives": [
        {
          "attributes": {
            "POSITION": 0,
            "NORMAL": 1
          },
          "indices": 2,
          "material": 0
        }
      ]
    }
  ],
  "materials": [
    {
      "name": "box3d_capsule_mat",
      "pbrMetallicRoughness": {
        "baseColorFactor": [
          0.65,
          0.35,
          0.75,
          1.0
        ],
        "metallicFactor": 0.0,
        "roughnessFactor": 0.8
      },
      "alphaMode": "OPAQUE"
    }
  ],
  "buffers": [
    {
      "byteLength": 10704,
      "uri": "data:application/octet-stream;base64,"
    }
  ],
  "bufferViews": [
    {
      "buffer": 0,
      "byteOffset": 0,
      "byteLength": 2856,
      "target": 34962
    },
    {
      "buffer": 0,
      "byteOffset": 2856,
      "byteLength": 2856,
      "target": 34962
    },
    {
      "buffer": 0,
      "byteOffset": 5712,
      "byteLength": 4992,
      "target": 34963
    }
  ],
  "accessors": [
    {
      "bufferView": 0,
      "componentType": 5126,
      "count": 238,
      "type": "VEC3",
      "min": [
        -0.5,
        -1.5,
        -0.5
      ],
      "max": [
        0.5,
        1.5,
        0.5
      ]
    },
    {
      "bufferView": 1,
      "componentType": 5126,
      "count": 238,
      "type": "VEC3"
    },
    {
      "bufferView": 2,
      "componentType": 5125,
      "count": 1248,
      "type": "SCALAR"
    }
  ]
}